<?xml version="1.0" encoding="iso-8859-1"?>
<!-- Generator: Adobe Illustrator 19.0.0, SVG Export Plug-In . SVG Version: 6.00 Build 0)  -->
<svg version="1.1" id="Layer_1" xmlns="http://www.w3.org/2000/svg" xmlns:xlink="http://www.w3.org/1999/xlink" x="0px" y="0px"
	 viewBox="0 0 512 512" style="enable-background:new 0 0 512 512;" xml:space="preserve">
<path style="fill:#E54728;" d="M398.362,72.008L398.362,72.008c-78.596-78.596-206.025-78.596-284.621,0l0,0
	c-78.596,78.596-78.596,206.025,0,284.621l142.31,142.31l142.31-142.31C476.958,278.033,476.958,150.604,398.362,72.008z"/>
<path style="fill:#F95428;" d="M136.828,333.541c-31.846-31.846-49.385-74.187-49.385-119.223s17.538-87.376,49.385-119.222
	c31.846-31.846,74.187-49.383,119.223-49.383c45.035,0,87.376,17.538,119.222,49.383s49.385,74.187,49.385,119.222
	c0,45.037-17.538,87.378-49.385,119.222L256.05,452.763L136.828,333.541z"/>
<path style="fill:#333333;" d="M256.05,512c-3.464,0-6.786-1.375-9.235-3.825l-142.31-142.31
	c-40.48-40.479-62.773-94.299-62.773-151.546s22.293-111.067,62.773-151.546C144.985,22.293,198.805,0,256.052,0
	s111.067,22.293,151.546,62.773l0,0c83.561,83.563,83.561,219.528,0,303.091l-142.312,142.31
	C262.837,510.625,259.514,512,256.05,512z M256.052,26.121c-50.269,0-97.53,19.576-133.075,55.122S67.854,164.05,67.854,214.319
	c0,50.27,19.576,97.53,55.122,133.075l133.075,133.075l133.075-133.075c73.378-73.378,73.378-192.773,0-266.151
	C353.581,45.698,306.32,26.121,256.052,26.121z"/>
<circle style="fill:#E6E6E6;" cx="256.053" cy="214.324" r="122.978"/>
<path style="fill:#4D4D4D;" d="M327.523,188.058l-13.478,15.947l-52.569,62.194c-2.586,3.056-6.269,4.637-9.978,4.637
	c-2.899,0-5.799-0.966-8.215-2.913l-45.607-36.948c-5.603-4.545-6.465-12.773-1.933-18.376c4.545-5.603,12.773-6.465,18.376-1.92
	l35.668,28.89l41.18-48.716l16.613-19.656c4.663-5.512,12.904-6.204,18.402-1.541C331.493,174.305,332.186,182.546,327.523,188.058z
	"/>
<path style="fill:#CCCCCC;" d="M296.21,297.141c-67.921,0-122.982-55.061-122.982-122.982c0-23.672,6.695-45.777,18.283-64.539
	c-35.07,21.664-58.443,60.45-58.443,104.699c0,67.921,55.061,122.982,122.982,122.982c44.249,0,83.034-23.373,104.697-58.443
	C341.987,290.447,319.882,297.141,296.21,297.141z"/>
<path style="fill:#333333;" d="M256.05,350.361c-75.015,0-136.043-61.028-136.043-136.043S181.036,78.276,256.05,78.276
	s136.044,61.028,136.044,136.043C392.094,289.332,331.065,350.361,256.05,350.361z M256.05,104.397
	c-60.61,0-109.922,49.31-109.922,109.922c0,60.61,49.31,109.922,109.922,109.922s109.923-49.31,109.923-109.922
	S316.662,104.397,256.05,104.397z"/>
<ellipse transform="matrix(-0.7071 -0.7071 0.7071 -0.7071 406.7381 499.6032)" style="fill:#FFFFFF;" cx="306.84" cy="165.563" rx="48.974" ry="29.385"/>
<path style="fill:#B3B3B3;" d="M327.523,188.058l-13.478,15.947c-7.601-2.351-15.634-6.818-23.078-13.152l16.613-19.656
	c4.663-5.512,12.904-6.204,18.402-1.541C331.493,174.305,332.186,182.546,327.523,188.058z"/>
<g>
</g>
<g>
</g>
<g>
</g>
<g>
</g>
<g>
</g>
<g>
</g>
<g>
</g>
<g>
</g>
<g>
</g>
<g>
</g>
<g>
</g>
<g>
</g>
<g>
</g>
<g>
</g>
<g>
</g>
</svg>
